<svg id="visual" viewBox="0 0 900 450" width="900" height="450" xmlns="http://www.w3.org/2000/svg" xmlns:xlink="http://www.w3.org/1999/xlink" version="1.1"><path d="M0 171L21.5 164.2C43 157.3 86 143.7 128.8 137.5C171.7 131.3 214.3 132.7 257.2 135.2C300 137.7 343 141.3 385.8 148.3C428.7 155.3 471.3 165.7 514.2 168C557 170.3 600 164.7 642.8 165.7C685.7 166.7 728.3 174.3 771.2 174C814 173.7 857 165.3 878.5 161.2L900 157L900 0L878.5 0C857 0 814 0 771.2 0C728.3 0 685.7 0 642.8 0C600 0 557 0 514.2 0C471.3 0 428.7 0 385.8 0C343 0 300 0 257.2 0C214.3 0 171.7 0 128.8 0C86 0 43 0 21.5 0L0 0Z" fill="#fa7268"></path><path d="M0 103L21.5 101.5C43 100 86 97 128.8 97.7C171.7 98.3 214.3 102.7 257.2 104.8C300 107 343 107 385.8 112.8C428.7 118.7 471.3 130.3 514.2 127.2C557 124 600 106 642.8 102.8C685.7 99.7 728.3 111.3 771.2 115.7C814 120 857 117 878.5 115.5L900 114L900 0L878.5 0C857 0 814 0 771.2 0C728.3 0 685.7 0 642.8 0C600 0 557 0 514.2 0C471.3 0 428.7 0 385.8 0C343 0 300 0 257.2 0C214.3 0 171.7 0 128.8 0C86 0 43 0 21.5 0L0 0Z" fill="#f86866"></path><path d="M0 81L21.5 82C43 83 86 85 128.8 90.7C171.7 96.3 214.3 105.7 257.2 106C300 106.3 343 97.7 385.8 96.8C428.7 96 471.3 103 514.2 106.3C557 109.7 600 109.3 642.8 105.2C685.7 101 728.3 93 771.2 92.2C814 91.3 857 97.7 878.5 100.8L900 104L900 0L878.5 0C857 0 814 0 771.2 0C728.3 0 685.7 0 642.8 0C600 0 557 0 514.2 0C471.3 0 428.7 0 385.8 0C343 0 300 0 257.2 0C214.3 0 171.7 0 128.8 0C86 0 43 0 21.5 0L0 0Z" fill="#f55e65"></path><path d="M0 70L21.5 69.2C43 68.3 86 66.7 128.8 68C171.7 69.3 214.3 73.7 257.2 75C300 76.3 343 74.7 385.8 72.5C428.7 70.3 471.3 67.7 514.2 65.5C557 63.3 600 61.7 642.8 58.2C685.7 54.7 728.3 49.3 771.2 50.8C814 52.3 857 60.7 878.5 64.8L900 69L900 0L878.5 0C857 0 814 0 771.2 0C728.3 0 685.7 0 642.8 0C600 0 557 0 514.2 0C471.3 0 428.7 0 385.8 0C343 0 300 0 257.2 0C214.3 0 171.7 0 128.8 0C86 0 43 0 21.5 0L0 0Z" fill="#f25364"></path><path d="M0 49L21.5 49.5C43 50 86 51 128.8 46.2C171.7 41.3 214.3 30.7 257.2 30.2C300 29.7 343 39.3 385.8 40.3C428.7 41.3 471.3 33.7 514.2 31.5C557 29.3 600 32.7 642.8 34.3C685.7 36 728.3 36 771.2 34.8C814 33.7 857 31.3 878.5 30.2L900 29L900 0L878.5 0C857 0 814 0 771.2 0C728.3 0 685.7 0 642.8 0C600 0 557 0 514.2 0C471.3 0 428.7 0 385.8 0C343 0 300 0 257.2 0C214.3 0 171.7 0 128.8 0C86 0 43 0 21.5 0L0 0Z" fill="#ee4864"></path></svg>